<mxfile host="Electron" agent="Mozilla/5.0 (Macintosh; Intel Mac OS X 10_15_7) AppleWebKit/537.36 (KHTML, like Gecko) draw.io/27.0.5 Chrome/134.0.6998.205 Electron/35.3.0 Safari/537.36" version="27.0.5">
  <diagram name="第 1 页" id="raP9I7w9HJuVn9uI5VcJ">
    <mxGraphModel dx="1234" dy="803" grid="1" gridSize="10" guides="1" tooltips="1" connect="1" arrows="1" fold="1" page="1" pageScale="1" pageWidth="827" pageHeight="1169" math="0" shadow="0">
      <root>
        <mxCell id="0" />
        <mxCell id="1" parent="0" />
        <mxCell id="Lhsv0Yfd5E1QXEF5s4fU-1" value="1" style="ellipse;whiteSpace=wrap;html=1;aspect=fixed;labelBackgroundColor=none;" vertex="1" parent="1">
          <mxGeometry x="360" y="200" width="40" height="40" as="geometry" />
        </mxCell>
        <mxCell id="Lhsv0Yfd5E1QXEF5s4fU-16" style="rounded=0;orthogonalLoop=1;jettySize=auto;html=1;entryX=1;entryY=0;entryDx=0;entryDy=0;startArrow=none;startFill=0;endArrow=none;labelBackgroundColor=none;fontColor=default;" edge="1" parent="1" source="Lhsv0Yfd5E1QXEF5s4fU-2" target="Lhsv0Yfd5E1QXEF5s4fU-4">
          <mxGeometry relative="1" as="geometry" />
        </mxCell>
        <mxCell id="Lhsv0Yfd5E1QXEF5s4fU-17" style="rounded=0;orthogonalLoop=1;jettySize=auto;html=1;entryX=0;entryY=0;entryDx=0;entryDy=0;fontColor=default;startArrow=none;startFill=0;endArrow=none;labelBackgroundColor=none;" edge="1" parent="1" source="Lhsv0Yfd5E1QXEF5s4fU-2" target="Lhsv0Yfd5E1QXEF5s4fU-5">
          <mxGeometry relative="1" as="geometry" />
        </mxCell>
        <mxCell id="Lhsv0Yfd5E1QXEF5s4fU-2" value="2" style="ellipse;whiteSpace=wrap;html=1;aspect=fixed;labelBackgroundColor=none;" vertex="1" parent="1">
          <mxGeometry x="240" y="240" width="40" height="40" as="geometry" />
        </mxCell>
        <mxCell id="Lhsv0Yfd5E1QXEF5s4fU-18" style="rounded=0;orthogonalLoop=1;jettySize=auto;html=1;entryX=1;entryY=0;entryDx=0;entryDy=0;fontColor=default;exitX=0;exitY=1;exitDx=0;exitDy=0;startArrow=none;startFill=0;endArrow=none;labelBackgroundColor=none;" edge="1" parent="1" source="Lhsv0Yfd5E1QXEF5s4fU-3" target="Lhsv0Yfd5E1QXEF5s4fU-6">
          <mxGeometry relative="1" as="geometry" />
        </mxCell>
        <mxCell id="Lhsv0Yfd5E1QXEF5s4fU-19" style="rounded=0;orthogonalLoop=1;jettySize=auto;html=1;entryX=0;entryY=0;entryDx=0;entryDy=0;fontColor=default;exitX=1;exitY=1;exitDx=0;exitDy=0;startArrow=none;startFill=0;endArrow=none;labelBackgroundColor=none;" edge="1" parent="1" source="Lhsv0Yfd5E1QXEF5s4fU-3" target="Lhsv0Yfd5E1QXEF5s4fU-7">
          <mxGeometry relative="1" as="geometry" />
        </mxCell>
        <mxCell id="Lhsv0Yfd5E1QXEF5s4fU-3" value="3" style="ellipse;whiteSpace=wrap;html=1;aspect=fixed;labelBackgroundColor=none;" vertex="1" parent="1">
          <mxGeometry x="480" y="240" width="40" height="40" as="geometry" />
        </mxCell>
        <mxCell id="Lhsv0Yfd5E1QXEF5s4fU-4" value="4" style="ellipse;whiteSpace=wrap;html=1;aspect=fixed;labelBackgroundColor=none;" vertex="1" parent="1">
          <mxGeometry x="200" y="320" width="40" height="40" as="geometry" />
        </mxCell>
        <mxCell id="Lhsv0Yfd5E1QXEF5s4fU-20" style="rounded=0;orthogonalLoop=1;jettySize=auto;html=1;entryX=1;entryY=0;entryDx=0;entryDy=0;fontColor=default;startArrow=none;startFill=0;endArrow=none;labelBackgroundColor=none;" edge="1" parent="1" source="Lhsv0Yfd5E1QXEF5s4fU-5" target="Lhsv0Yfd5E1QXEF5s4fU-9">
          <mxGeometry relative="1" as="geometry" />
        </mxCell>
        <mxCell id="Lhsv0Yfd5E1QXEF5s4fU-21" style="rounded=0;orthogonalLoop=1;jettySize=auto;html=1;entryX=0;entryY=0;entryDx=0;entryDy=0;fontColor=default;startArrow=none;startFill=0;endArrow=none;labelBackgroundColor=none;" edge="1" parent="1" source="Lhsv0Yfd5E1QXEF5s4fU-5" target="Lhsv0Yfd5E1QXEF5s4fU-11">
          <mxGeometry relative="1" as="geometry" />
        </mxCell>
        <mxCell id="Lhsv0Yfd5E1QXEF5s4fU-5" value="5" style="ellipse;whiteSpace=wrap;html=1;aspect=fixed;labelBackgroundColor=none;" vertex="1" parent="1">
          <mxGeometry x="280" y="320" width="40" height="40" as="geometry" />
        </mxCell>
        <mxCell id="Lhsv0Yfd5E1QXEF5s4fU-22" style="rounded=0;orthogonalLoop=1;jettySize=auto;html=1;entryX=1;entryY=0;entryDx=0;entryDy=0;fontColor=default;startArrow=none;startFill=0;endArrow=none;labelBackgroundColor=none;" edge="1" parent="1" source="Lhsv0Yfd5E1QXEF5s4fU-6" target="Lhsv0Yfd5E1QXEF5s4fU-10">
          <mxGeometry relative="1" as="geometry" />
        </mxCell>
        <mxCell id="Lhsv0Yfd5E1QXEF5s4fU-6" value="6" style="ellipse;whiteSpace=wrap;html=1;aspect=fixed;labelBackgroundColor=none;" vertex="1" parent="1">
          <mxGeometry x="440" y="320" width="40" height="40" as="geometry" />
        </mxCell>
        <mxCell id="Lhsv0Yfd5E1QXEF5s4fU-23" style="rounded=0;orthogonalLoop=1;jettySize=auto;html=1;entryX=0;entryY=0;entryDx=0;entryDy=0;fontColor=default;startArrow=none;startFill=0;endArrow=none;labelBackgroundColor=none;" edge="1" parent="1" source="Lhsv0Yfd5E1QXEF5s4fU-7" target="Lhsv0Yfd5E1QXEF5s4fU-8">
          <mxGeometry relative="1" as="geometry" />
        </mxCell>
        <mxCell id="Lhsv0Yfd5E1QXEF5s4fU-7" value="7" style="ellipse;whiteSpace=wrap;html=1;aspect=fixed;labelBackgroundColor=none;" vertex="1" parent="1">
          <mxGeometry x="520" y="320" width="40" height="40" as="geometry" />
        </mxCell>
        <mxCell id="Lhsv0Yfd5E1QXEF5s4fU-8" value="11" style="ellipse;whiteSpace=wrap;html=1;aspect=fixed;labelBackgroundColor=none;" vertex="1" parent="1">
          <mxGeometry x="560" y="400" width="40" height="40" as="geometry" />
        </mxCell>
        <mxCell id="Lhsv0Yfd5E1QXEF5s4fU-9" value="8" style="ellipse;whiteSpace=wrap;html=1;aspect=fixed;labelBackgroundColor=none;" vertex="1" parent="1">
          <mxGeometry x="240" y="400" width="40" height="40" as="geometry" />
        </mxCell>
        <mxCell id="Lhsv0Yfd5E1QXEF5s4fU-10" value="10" style="ellipse;whiteSpace=wrap;html=1;aspect=fixed;labelBackgroundColor=none;" vertex="1" parent="1">
          <mxGeometry x="400" y="400" width="40" height="40" as="geometry" />
        </mxCell>
        <mxCell id="Lhsv0Yfd5E1QXEF5s4fU-11" value="9" style="ellipse;whiteSpace=wrap;html=1;aspect=fixed;labelBackgroundColor=none;" vertex="1" parent="1">
          <mxGeometry x="320" y="400" width="40" height="40" as="geometry" />
        </mxCell>
        <mxCell id="Lhsv0Yfd5E1QXEF5s4fU-14" value="" style="endArrow=none;html=1;rounded=0;entryX=0;entryY=0.5;entryDx=0;entryDy=0;labelBackgroundColor=none;fontColor=default;" edge="1" parent="1" source="Lhsv0Yfd5E1QXEF5s4fU-2" target="Lhsv0Yfd5E1QXEF5s4fU-1">
          <mxGeometry width="50" height="50" relative="1" as="geometry">
            <mxPoint x="290" y="180" as="sourcePoint" />
            <mxPoint x="340" y="130" as="targetPoint" />
          </mxGeometry>
        </mxCell>
        <mxCell id="Lhsv0Yfd5E1QXEF5s4fU-15" value="" style="endArrow=none;html=1;rounded=0;exitX=1;exitY=0.5;exitDx=0;exitDy=0;entryX=0;entryY=0.35;entryDx=0;entryDy=0;entryPerimeter=0;labelBackgroundColor=none;fontColor=default;" edge="1" parent="1" source="Lhsv0Yfd5E1QXEF5s4fU-1" target="Lhsv0Yfd5E1QXEF5s4fU-3">
          <mxGeometry width="50" height="50" relative="1" as="geometry">
            <mxPoint x="490" y="160" as="sourcePoint" />
            <mxPoint x="540" y="110" as="targetPoint" />
          </mxGeometry>
        </mxCell>
      </root>
    </mxGraphModel>
  </diagram>
</mxfile>
